<svg width="129" height="129" viewBox="0 0 129 129" fill="none" xmlns="http://www.w3.org/2000/svg">
<path d="M97.9219 10.3459C116.173 21.6198 128.335 41.8071 128.335 64.835C128.335 100.181 99.6812 128.835 64.335 128.835C56.627 128.835 49.2373 127.472 42.3956 124.973L41.6647 124.701L42.8549 124.318L44.3849 123.817L45.1397 123.564L45.8878 123.311L47.3638 122.803L48.8127 122.291L50.2346 121.776L51.6294 121.258L52.3167 120.997L53.6711 120.473C55.1014 119.913 56.4856 119.346 57.8237 118.774L58.8187 118.343L60.0382 117.802C60.5742 117.56 61.1022 117.318 61.6222 117.074L62.3962 116.708L63.5348 116.155L64.094 115.878L64.6465 115.599L65.7312 115.039C74.8367 110.263 81.0233 105.074 84.3079 99.3849C91.2671 87.3312 85.1892 74.45 67.7415 61.3181L66.3216 60.2535L65.4591 59.5921L64.6217 58.9356L63.8094 58.2842L63.0219 57.6378L62.6375 57.3165L62.2593 56.9964L61.5215 56.3599L60.9843 55.8857L60.4609 55.4143L59.7846 54.79L59.1328 54.1706L58.5053 53.556L58.2007 53.2505L57.9021 52.9462L57.3232 52.3412C50.426 45.0093 48.8859 38.7326 52.0171 33.3092C53.6108 30.5488 56.3738 27.835 60.3012 25.1919L60.7781 24.8751L61.529 24.3919C61.8686 24.1775 62.2159 23.9636 62.571 23.7501L63.1094 23.4304L63.9387 22.9522L64.7942 22.4758L65.4529 22.1196L66.1264 21.7645L67.0471 21.2925C67.7474 20.9393 68.4698 20.5876 69.2142 20.2376L69.9659 19.8881L70.9909 19.4238L71.5132 19.1924L72.5774 18.7311L73.1193 18.5012L74.2225 18.043L74.7839 17.8147L75.9263 17.3597L76.5072 17.133L77.6886 16.6812L78.896 16.2316L79.5094 16.0076L80.7559 15.5613L82.0283 15.1174L83.3268 14.6757L83.9857 14.4558L85.3232 14.0176L86.6866 13.5819L88.076 13.1486L89.4914 12.7178L90.9328 12.2894L92.771 11.7575L94.6497 11.2297L96.9577 10.6017L97.9219 10.3459ZM64.335 0.834961C72.118 0.834961 79.5765 2.22425 86.4761 4.76835L87.2132 5.04534L86.7459 5.18683L84.4663 5.8895L83.7199 6.12554L82.2472 6.60038L80.8013 7.07891L79.3823 7.56118L77.9901 8.04722L76.6247 8.53705L75.9521 8.7834L74.2999 9.4035L72.6895 10.0297L71.4314 10.535L70.8124 10.7892L69.5944 11.3005C57.1473 16.6049 48.9898 22.5526 45.0889 29.3092C38.2803 41.1019 44.4558 53.8146 61.9053 66.9431L63.3251 68.0077L64.1873 68.6696L65.0242 69.3267L65.4333 69.6535L66.2325 70.3036L66.8155 70.7881L67.3844 71.27L68.1211 71.9084L68.4801 72.2259L69.1796 72.8574C69.5613 73.207 69.9316 73.5545 70.2905 73.8999L70.8202 74.4164L71.583 75.1854L72.3076 75.9473C79.1753 83.3303 80.6431 89.7325 77.3797 95.3849C75.268 99.0424 71.2364 102.643 65.2939 106.138L64.7485 106.456L63.8643 106.957L62.9539 107.456C62.4408 107.733 61.9155 108.009 61.3781 108.285L60.5628 108.697L59.5603 109.191L58.5315 109.683L57.4764 110.174L56.939 110.418L55.8446 110.906L54.7238 111.393L53.5768 111.877L52.9934 112.118L51.807 112.6L51.204 112.84L50.5944 113.08L49.3555 113.558L48.0904 114.034L46.7991 114.508L45.4815 114.98L44.1377 115.45L43.456 115.684L42.0729 116.151L41.3715 116.383L39.9491 116.847L38.5005 117.308L36.6529 117.882L34.7645 118.453L33.2243 118.906L31.0747 119.524C12.6422 108.29 0.334991 87.9999 0.334991 64.835C0.334991 29.4887 28.9888 0.834961 64.335 0.834961Z" fill="#0080FF"/>
</svg>
